<mxfile host="app.diagrams.net" modified="2024-07-17T02:07:55.197Z" agent="Mozilla/5.0 (Macintosh; Intel Mac OS X 10_15_7) AppleWebKit/537.36 (KHTML, like Gecko) Chrome/126.0.0.0 Safari/537.36" version="24.7.0" etag="XGf2be1Dc5yqWSxbropJ" type="github">
  <diagram name="第 1 页" id="1Jtz1td1OAfwhnNcOxTd">
    <mxGraphModel>
      <root>
        <mxCell id="0" />
        <mxCell id="1" parent="0" />
      </root>
    </mxGraphModel>
  </diagram>
</mxfile>
